<svg width="20" height="20" fill="none" xmlns="http://www.w3.org/2000/svg"><path d="M8.438 4.063v.312h3.124v-.313a1.563 1.563 0 1 0-3.124 0Zm-1.25.312v-.313a2.813 2.813 0 0 1 5.625 0v.313H17.5a.625.625 0 1 1 0 1.25h-.942L15.375 15.98a3.125 3.125 0 0 1-3.106 2.77H7.73a3.125 3.125 0 0 1-3.106-2.77L3.442 5.625H2.5a.625.625 0 0 1 0-1.25h4.688Zm-1.32 11.463A1.875 1.875 0 0 0 7.73 17.5h4.54a1.875 1.875 0 0 0 1.862-1.662L15.3 5.625H4.7l1.167 10.213Zm2.257-8.025a.625.625 0 0 1 .625.625v6.25a.625.625 0 1 1-1.25 0v-6.25a.625.625 0 0 1 .625-.626Zm4.375.625a.625.625 0 1 0-1.25 0v6.25a.624.624 0 1 0 1.25 0v-6.25Z" fill="#F2F2F2"/></svg>